<svg version="1.1" id="Layer_1" xmlns="http://www.w3.org/2000/svg" xmlns:xlink="http://www.w3.org/1999/xlink" x="0px" y="0px"
	 width="100%" viewBox="0 0 1024 1024" enable-background="new 0 0 1024 1024" xml:space="preserve">
<path fill="#000000" opacity="1.000000" stroke="none" 
	d="
M334.193970,543.855957 
	C345.923401,558.592651 347.447601,575.446228 345.830719,592.921143 
	C345.123932,600.560364 343.406189,608.059143 339.662811,614.906738 
	C331.201935,630.383972 317.409698,637.777893 300.585266,640.317383 
	C286.341431,642.467407 271.976013,640.840393 257.675385,641.335693 
	C253.135757,641.492798 253.712891,638.319458 253.711243,635.538696 
	C253.690674,600.876770 253.691681,566.214905 253.688538,531.552979 
	C253.688477,530.886536 253.729935,530.219299 253.710342,529.553711 
	C253.636261,527.036499 254.938019,525.838013 257.363373,525.889160 
	C273.147827,526.221863 289.007324,524.474670 304.691284,527.618896 
	C316.108734,529.907898 326.121613,534.749146 334.193970,543.855957 
M326.973938,603.406860 
	C330.560883,593.779968 330.363068,583.759338 329.540771,573.808167 
	C328.103455,556.414490 317.838074,544.849426 300.830261,541.178345 
	C291.492981,539.162964 281.938477,540.086243 272.478394,539.737732 
	C269.609711,539.632080 269.250671,541.280884 269.252533,543.552246 
	C269.274384,570.195618 269.306274,596.839233 269.209473,623.482239 
	C269.196320,627.103760 270.805725,628.101013 274.065002,627.994080 
	C280.221008,627.791992 286.411774,628.114380 292.536743,627.603516 
	C308.303345,626.288513 320.492371,619.484131 326.973938,603.406860 
z"/>
<path fill="#000000" opacity="1.000000" stroke="none" 
	d="
M382.588928,485.401794 
	C381.980377,476.967529 381.262573,469.008606 380.856628,461.033783 
	C380.010345,444.408905 379.347076,427.774780 378.554504,411.147003 
	C378.465149,409.272400 378.226532,407.477844 379.915192,406.123016 
	C385.991943,401.247620 392.060760,396.362396 398.045441,391.550964 
	C400.373108,393.109131 399.994415,395.112091 400.067719,396.820648 
	C400.874115,415.615997 401.587769,434.415344 402.360443,453.212219 
	C402.647583,460.197968 403.122803,467.177399 403.311707,474.165131 
	C403.390472,477.079681 404.809509,477.878784 407.387970,477.865234 
	C416.885956,477.815277 426.384521,477.788177 435.882294,477.848053 
	C438.947876,477.867401 439.920197,476.449066 439.860291,473.533722 
	C439.746246,467.985077 438.411682,462.670044 437.159943,457.330719 
	C436.645477,455.136322 436.278839,453.009338 438.431732,451.439667 
	C444.758301,446.826904 451.091705,442.223389 457.454193,437.660522 
	C457.938110,437.313446 458.671753,437.314514 459.837463,437.011169 
	C463.171173,450.863800 464.254333,464.332947 458.774323,477.709290 
	C458.648071,478.017548 458.496643,478.315399 458.366089,478.622040 
	C448.401672,502.027954 440.742462,507.103271 415.440704,507.071747 
	C407.107880,507.061340 398.774200,507.127533 390.442505,507.027008 
	C385.022522,506.961670 383.274323,505.301208 382.956818,499.861969 
	C382.685089,495.207275 382.721069,490.534668 382.588928,485.401794 
z"/>
<path fill="#000000" opacity="1.000000" stroke="none" 
	d="
M770.643921,564.582275 
	C774.233887,570.527527 774.997070,576.860291 775.073364,583.171570 
	C775.284912,600.667969 775.174377,618.168640 775.137939,635.667419 
	C775.132568,638.224426 775.766724,641.595581 771.533020,641.247375 
	C768.174133,640.971130 763.451111,643.450134 762.526184,637.195496 
	C762.228210,635.180359 761.954041,632.908997 760.349243,631.293701 
	C758.915222,631.386108 758.322510,632.519958 757.526428,633.305542 
	C746.548096,644.139832 733.498657,645.467468 719.584229,640.983276 
	C708.827332,637.516663 704.368591,628.993774 704.120850,618.253052 
	C703.881653,607.884888 708.370544,599.859863 717.733337,595.039001 
	C724.654236,591.475342 732.207642,590.157532 739.920959,589.693665 
	C745.239075,589.373901 750.555054,588.982178 755.878052,588.796814 
	C758.561218,588.703430 759.640625,587.669067 759.825195,584.904358 
	C760.728394,571.376892 752.001526,563.519592 738.615906,565.731262 
	C733.141357,566.635803 727.839111,568.032593 722.907288,570.464172 
	C719.212769,572.285706 717.377197,571.324097 716.377747,567.574829 
	C716.037903,566.299805 715.387085,565.103638 714.839539,563.888977 
	C713.823120,561.634094 714.414062,560.133179 716.732910,559.123230 
	C729.979492,553.353760 743.641479,551.802612 757.727966,555.200745 
	C763.100464,556.496704 767.413879,559.547974 770.643921,564.582275 
M757.674194,617.985413 
	C759.443604,613.584106 759.756714,608.990662 759.783081,604.294250 
	C759.801697,600.982178 758.349487,599.828674 755.270691,599.953674 
	C750.455505,600.149170 745.614929,600.022949 740.825806,600.469482 
	C736.031006,600.916626 731.273438,601.921509 727.053711,604.454773 
	C721.177979,607.982239 719.652527,613.460510 720.296387,619.901306 
	C720.808350,625.023926 723.844666,627.970825 728.458313,629.528503 
	C739.045959,633.103027 751.653076,628.354614 757.674194,617.985413 
z"/>
<path fill="#000000" opacity="1.000000" stroke="none" 
	d="
M378.040771,557.854248 
	C388.665619,553.287354 399.495697,552.829102 410.325867,553.929993 
	C423.980255,555.318054 432.539429,564.215393 432.933899,578.193115 
	C433.488403,597.843628 433.130859,617.520020 433.156281,637.185303 
	C433.159058,639.322083 432.866974,641.511414 430.056030,641.231750 
	C426.910095,640.918823 422.740601,643.239319 421.119019,638.338318 
	C420.348816,636.010376 419.852936,633.591614 419.258636,631.312927 
	C416.980957,631.115112 416.404846,632.781677 415.396393,633.746826 
	C405.182709,643.522095 388.164246,646.230408 375.426117,640.069214 
	C366.906921,635.948608 363.101318,629.024780 362.605286,619.701721 
	C362.026764,608.829285 365.780121,600.412659 375.509674,595.210205 
	C382.221161,591.621521 389.600220,590.201355 397.152679,589.714417 
	C402.635376,589.360901 408.119446,588.915588 413.608429,588.815552 
	C416.912384,588.755249 417.844849,587.313232 417.909332,584.219971 
	C418.199371,570.306091 410.445587,563.690735 396.651428,565.842407 
	C391.147308,566.700928 385.857178,568.105164 380.942108,570.542664 
	C377.168152,572.414368 375.406494,571.369812 374.482910,567.645752 
	C374.403778,567.326721 374.219330,567.034668 374.092407,566.726562 
	C371.569977,560.602173 371.570190,560.602112 378.040771,557.854248 
M417.739319,604.711792 
	C418.106201,601.306946 416.607178,599.789062 413.165222,599.954712 
	C408.183441,600.194275 403.164398,600.015015 398.219025,600.549316 
	C393.778687,601.029053 389.381104,602.087952 385.408508,604.387207 
	C380.138367,607.437439 377.485779,613.145386 378.359283,619.718018 
	C379.133392,625.542664 382.139923,628.500061 388.877838,630.064697 
	C404.994507,633.807251 417.594788,623.133850 417.739319,604.711792 
z"/>
<path fill="#000000" opacity="1.000000" stroke="none" 
	d="
M540.383850,591.070923 
	C549.164673,589.350525 557.677063,589.373779 566.131775,588.895325 
	C569.841736,588.685364 570.848389,587.301819 571.007812,583.762451 
	C571.661194,569.250488 561.853088,564.435303 549.689819,565.755920 
	C542.672302,566.517822 536.402039,569.710938 529.874390,571.852966 
	C527.430725,569.141968 526.908081,565.912170 525.526489,563.113281 
	C524.501648,561.037109 525.844910,560.057495 527.505676,559.316467 
	C541.525757,553.060547 555.987061,551.363403 570.771423,555.917236 
	C579.739746,558.679688 584.246216,565.818115 585.111450,574.627136 
	C587.164612,595.530884 585.798279,616.531494 586.014465,637.490356 
	C586.037720,639.747253 585.289856,641.640076 582.601624,641.257507 
	C579.611084,640.831848 575.714539,643.213989 573.924805,638.677002 
	C572.970093,636.256714 573.317627,633.404907 571.592712,631.219971 
	C569.620911,631.540894 568.803101,633.161377 567.627869,634.259766 
	C557.158875,644.043823 539.146362,646.235107 526.712463,639.247742 
	C518.933472,634.876282 515.971497,627.955566 515.573547,619.389282 
	C515.101990,609.237732 518.381104,601.104553 527.360291,595.758850 
	C531.264465,593.434570 535.533325,592.062988 540.383850,591.070923 
M570.535156,612.756531 
	C570.622803,610.101440 570.609985,607.438293 570.822144,604.793213 
	C571.124512,601.022339 569.296143,599.755005 565.775330,599.941833 
	C561.131714,600.188171 556.449890,599.992371 551.838257,600.487793 
	C546.731384,601.036499 541.627075,601.989685 537.251343,605.032227 
	C531.812805,608.813782 530.567505,614.227478 531.360779,620.408081 
	C531.988647,625.299194 535.088562,628.096008 539.493408,629.503296 
	C550.613403,633.056152 567.429810,627.860901 570.535156,612.756531 
z"/>
<path fill="#000000" opacity="1.000000" stroke="none" 
	d="
M611.077393,559.350586 
	C611.297913,553.095947 615.717529,555.025879 618.857544,554.674805 
	C622.131836,554.308655 624.369568,555.204224 624.530579,559.078552 
	C624.604980,560.867554 625.283386,562.631470 625.685547,564.396606 
	C627.046265,565.081421 627.535889,563.876587 628.070312,563.212585 
	C637.445435,551.563721 659.597046,551.079529 670.760010,556.525330 
	C681.447571,561.739258 684.632202,571.591248 684.949463,582.232056 
	C685.495300,600.535095 685.124817,618.864807 685.199951,637.183044 
	C685.211975,640.112427 684.072327,641.378601 681.055603,641.351257 
	C667.749939,641.230774 669.868347,642.502991 669.774292,630.839722 
	C669.652100,615.685913 669.814331,600.529846 669.705078,585.375793 
	C669.632141,575.260132 665.566833,568.202026 657.727173,566.863281 
	C641.701843,564.127014 629.725037,567.942444 627.336975,587.707092 
	C625.452881,603.301025 626.724121,618.981201 626.418518,634.619690 
	C626.286987,641.350037 626.367310,641.389038 619.871521,641.255127 
	C611.576111,641.084106 610.977234,643.326111 611.000366,632.258423 
	C611.050781,608.110779 611.044006,583.963074 611.077393,559.350586 
z"/>
<path fill="#000000" opacity="1.000000" stroke="none" 
	d="
M505.010315,489.903534 
	C506.832733,485.327393 504.382965,481.735413 503.262115,478.013824 
	C499.400513,465.192322 499.283783,465.164307 509.721100,457.066101 
	C512.812256,454.667664 515.453613,451.547485 519.496826,450.204590 
	C522.275085,454.615448 522.533386,459.573090 522.919312,464.235199 
	C524.650146,485.143219 521.398438,505.040558 509.676605,522.981628 
	C506.729462,527.492493 503.093689,531.387939 498.942261,534.734314 
	C493.614197,539.029175 487.490753,541.367737 480.515961,541.299805 
	C471.467804,541.211609 462.645325,539.683105 453.982941,537.222778 
	C451.967712,536.650452 448.695007,536.566833 449.574005,533.107422 
	C450.409210,529.820312 449.852844,525.455261 455.014374,524.755066 
	C470.290344,522.682922 482.696167,514.788086 494.122559,505.069550 
	C498.868683,501.032867 502.582916,496.140747 505.010315,489.903534 
z"/>
<path fill="#000000" opacity="1.000000" stroke="none" 
	d="
M597.227173,476.190552 
	C610.537170,471.580688 610.767517,471.058685 605.321228,458.533813 
	C605.254883,458.381317 605.148987,458.239380 605.113892,458.080902 
	C604.221497,454.045013 599.059265,450.919403 600.659790,447.002106 
	C602.100464,443.476135 606.194580,440.970337 609.284119,438.199463 
	C612.570679,435.251892 615.148682,431.433899 619.282898,429.492615 
	C631.082092,444.018158 631.427246,473.626038 620.163513,490.477997 
	C612.313782,502.222198 585.261841,512.416382 572.042908,508.260895 
	C573.421204,499.687805 574.799500,491.027405 576.214294,482.372955 
	C576.586853,480.094452 578.289795,479.814209 580.258301,479.530457 
	C585.836121,478.726501 591.494934,478.274597 597.227173,476.190552 
z"/>
<path fill="#000000" opacity="1.000000" stroke="none" 
	d="
M537.777466,422.137604 
	C536.349854,403.989502 534.688232,409.556946 547.789246,398.751923 
	C550.944824,396.149353 553.856873,393.101440 557.535645,391.479156 
	C559.873901,392.679291 559.172668,394.565216 559.212341,396.097229 
	C559.995422,426.375336 560.690491,456.655823 561.522827,486.932495 
	C561.617004,490.358673 560.715820,493.000916 558.218262,495.370636 
	C554.173767,499.208252 550.340210,503.268250 546.417664,507.234406 
	C545.809326,507.054688 545.200989,506.874969 544.592712,506.695251 
	C542.330750,478.662628 540.068848,450.629974 537.777466,422.137604 
z"/>
<path fill="#000000" opacity="1.000000" stroke="none" 
	d="
M474.060852,609.000122 
	C474.060455,618.496643 473.995911,627.494080 474.098755,636.489502 
	C474.139679,640.071960 472.802002,641.483032 469.071472,641.397705 
	C457.155579,641.125244 458.775482,642.475342 458.738495,631.442993 
	C458.659698,607.951904 458.696625,584.460388 458.763580,560.969238 
	C458.769348,558.943726 457.779449,556.076355 460.341583,555.184692 
	C463.457275,554.100159 466.917694,554.249207 470.170288,555.052734 
	C471.484863,555.377441 471.256683,556.940247 471.403625,558.076050 
	C471.868286,561.667358 472.347046,565.256836 472.927734,569.661621 
	C475.941406,565.422485 478.823578,562.041504 482.224457,559.140259 
	C489.597717,552.850220 498.208191,552.421021 507.216736,553.758484 
	C508.875275,554.004822 509.436432,555.037964 509.397797,556.554138 
	C509.368103,557.719666 509.330383,558.886658 509.238708,560.048523 
	C508.647156,567.545959 508.641968,567.545532 501.048767,567.197815 
	C486.401215,566.527039 474.979065,576.818481 474.272522,591.510864 
	C474.000610,597.164246 474.121735,602.836487 474.060852,609.000122 
z"/>
<path fill="#000000" opacity="1.000000" stroke="none" 
	d="
M445.523560,411.755188 
	C450.022308,415.316498 454.194000,418.773254 458.877289,422.653961 
	C453.737305,427.647247 448.469543,431.272125 443.302521,435.007416 
	C442.410583,435.652191 441.305634,435.396423 440.533020,434.693268 
	C436.540344,431.059631 431.874664,428.139343 427.959595,423.392761 
	C434.011810,419.345642 438.417297,413.863434 445.523560,411.755188 
z"/>
</svg>